                                                                        S      1
,,8Hservo v3,16Hservo_stamp_fill,7Hunknown,7Hunknown,32,38,7,99,15,,1., G      1
2,2HMM,1,0.08,15H20221223.122243,0.01,10000.,7Hunknown,7Hunknown,11,0,  G      2
15H20221223.085503;                                                     G      3
     186       1                                                00000000D      1
     186            -149       1       0                               0D      2
     514       2                                                00010000D      3
     514                       1       1                               0D      4
     510       3                                                00010000D      5
     510            -149       1       1                               0D      6
     510       4                                                00010000D      7
     510            -149       1       1                               0D      8
     510       5                                                00010000D      9
     510            -149       1       1                               0D     10
     510       6                                                00010000D     11
     510            -149       1       1                               0D     12
     510       7                                                00010000D     13
     510            -149       1       1                               0D     14
     510       8                                                00010000D     15
     510            -149       1       1                               0D     16
     510       9                                                00010000D     17
     510            -149       1       1                               0D     18
     510      10                                                00010000D     19
     510            -149       1       1                               0D     20
     510      11                                                00010000D     21
     510            -149       1       1                               0D     22
     510      12                                                00010000D     23
     510            -149       1       1                               0D     24
     510      13                                                00010000D     25
     510            -149       1       1                               0D     26
     510      14                                                00010000D     27
     510            -149       1       1                               0D     28
     508      15                                                00010000D     29
     508                       1       1                               0D     30
     508      16                                                00010000D     31
     508                       3       1                               0D     32
     508      19                                                00010000D     33
     508                       1       1                               0D     34
     508      20                                                00010000D     35
     508                       1       1                               0D     36
     508      21                                                00010000D     37
     508                       1       1                               0D     38
     508      22                                                00010000D     39
     508                       1       1                               0D     40
     508      23                                                00010000D     41
     508                       1       1                               0D     42
     508      24                                                00010000D     43
     508                       1       1                               0D     44
     508      25                                                00010000D     45
     508                       1       1                               0D     46
     508      26                                                00010000D     47
     508                       3       1                               0D     48
     508      29                                                00010000D     49
     508                       1       1                               0D     50
     508      30                                                00010000D     51
     508                       1       1                               0D     52
     126      31                                                00010000D     53
     126       0               2       0                               0D     54
     126      33                                                00010000D     55
     126       0               2       0                               0D     56
     126      35                                                00010000D     57
     126       0               2       0                               0D     58
     126      37                                                00010000D     59
     126       0               2       0                               0D     60
     126      39                                                00010000D     61
     126       0               3       0                               0D     62
     126      42                                                00010000D     63
     126       0               3       0                               0D     64
     126      45                                                00010000D     65
     126       0               2       0                               0D     66
     126      47                                                00010000D     67
     126       0               2       0                               0D     68
     126      49                                                00010000D     69
     126       0               2       0                               0D     70
     126      51                                                00010000D     71
     126       0               2       0                               0D     72
     126      53                                                00010000D     73
     126       0               2       0                               0D     74
     126      55                                                00010000D     75
     126       0               2       0                               0D     76
     126      57                                                00010000D     77
     126       0               2       0                               0D     78
     126      59                                                00010000D     79
     126       0               2       0                               0D     80
     126      61                                                00010000D     81
     126       0               2       0                               0D     82
     126      63                                                00010000D     83
     126       0               2       0                               0D     84
     126      65                                                00010000D     85
     126       0               2       0                               0D     86
     126      67                                                00010000D     87
     126       0               2       0                               0D     88
     126      69                                                00010000D     89
     126       0               2       0                               0D     90
     126      71                                                00010000D     91
     126       0               2       0                               0D     92
     126      73                                                00010000D     93
     126       0               2       0                               0D     94
     126      75                                                00010000D     95
     126       0               2       0                               0D     96
     126      77                                                00010000D     97
     126       0               2       0                               0D     98
     126      79                                                00010000D     99
     126       0               2       0                               0D    100
     126      81                                                00010000D    101
     126       0               2       0                               0D    102
     126      83                                                00010000D    103
     126       0               2       0                               0D    104
     126      85                                                00010000D    105
     126       0               2       0                               0D    106
     126      87                                                00010000D    107
     126       0               4       0                               0D    108
     126      91                                                00010000D    109
     126       0               3       0                               0D    110
     126      94                                                00010000D    111
     126       0               3       0                               0D    112
     128      97                                                00010000D    113
     128       0    -149       3       0                               0D    114
     128     100                                                00010000D    115
     128       0    -149       4       0                               0D    116
     128     104                                                00010000D    117
     128       0    -149       4       0                               0D    118
     128     108                                                00010000D    119
     128       0    -149       3       0                               0D    120
     128     111                                                00010000D    121
     128       0    -149       3       0                               0D    122
     128     114                                                00010000D    123
     128       0    -149       4       0                               0D    124
     128     118                                                00010000D    125
     128       0    -149       4       0                               0D    126
     128     122                                                00010000D    127
     128       0    -149       4       0                               0D    128
     128     126                                                00010000D    129
     128       0    -149       4       0                               0D    130
     128     130                                                00010000D    131
     128       0    -149       5       0                               0D    132
     128     135                                                00010000D    133
     128       0    -149       5       0                               0D    134
     128     140                                                00010000D    135
     128       0    -149       7       0                               0D    136
     502     147                                                00010000D    137
     502                       5       1                               0D    138
     504     152                                                00010001D    139
     504                       8       1                               0D    140
     406     160                                                00000000D    141
     406                       1      15                               0D    142
     406     161                                                00000000D    143
     406                       1      15                               0D    144
     408     162                                                00000001D    145
     408       0               1       0                               0D    146
     308     163                                                00010200D    147
     308       0               1       0                               0D    148
     314     164                                                00000200D    149
     314                       2       0                               0D    150
186,3,1,0,0,1,143;                                                     1P      1
514,12,5,1,7,1,9,1,11,1,13,1,15,1,17,1,19,1,21,1,23,1,25,1,27,1;       3P      2
510,113,1,1,29;                                                        5P      3
510,115,1,1,31;                                                        7P      4
510,117,1,1,33;                                                        9P      5
510,119,1,1,35;                                                       11P      6
510,121,1,1,37;                                                       13P      7
510,123,1,1,39;                                                       15P      8
510,125,1,1,41;                                                       17P      9
510,127,1,1,43;                                                       19P     10
510,129,1,1,45;                                                       21P     11
510,131,1,1,47;                                                       23P     12
510,133,1,1,49;                                                       25P     13
510,135,1,1,51;                                                       27P     14
508,4,0,139,1,1,0,0,139,2,1,0,0,139,3,0,0,0,139,4,0,0;                29P     15
508,10,0,139,5,0,0,0,139,6,1,0,0,139,7,1,0,0,139,8,1,0,0,139,9,       31P     16
1,0,0,139,10,0,0,0,139,11,0,0,0,139,12,1,0,0,139,2,0,0,0,139,13,      31P     17
0,0;                                                                  31P     18
508,4,0,139,14,1,0,0,139,15,1,0,0,139,16,0,0,0,139,7,0,0;             33P     19
508,4,0,139,17,1,0,0,139,18,1,0,0,139,10,1,0,0,139,19,1,0;            35P     20
508,4,0,139,20,1,0,0,139,11,1,0,0,139,18,0,0,0,139,21,0,0;            37P     21
508,4,0,139,22,1,0,0,139,23,1,0,0,139,19,0,0,0,139,9,0,0;             39P     22
508,4,0,139,16,1,0,0,139,24,0,0,0,139,22,0,0,0,139,8,0,0;             41P     23
508,4,0,139,3,1,0,0,139,12,0,0,0,139,20,0,0,0,139,25,0,0;             43P     24
508,4,0,139,13,1,0,0,139,1,0,0,0,139,26,0,0,0,139,27,0,0;             45P     25
508,10,0,139,28,0,0,0,139,26,1,0,0,139,4,1,0,0,139,25,1,0,0,139,      47P     26
21,1,0,0,139,17,0,0,0,139,23,0,0,0,139,24,1,0,0,139,15,0,0,0,         47P     27
139,29,1,0;                                                           47P     28
508,4,0,139,30,0,0,0,139,29,0,0,0,139,14,0,0,0,139,6,0,0;             49P     29
508,4,0,139,27,1,0,0,139,28,1,0,0,139,30,1,0,0,139,5,1,0;             51P     30
126,1,1,0,0,1,0,-0.3125,-0.3125,0.9375,0.9375,1.,1.,0.,0.,-17.,       53P     31
12.5,0.,-17.,-0.3125,0.9375,0.,0.,0.;                                 53P     32
126,1,1,0,0,1,0,0.6,0.6,2.,2.,1.,1.,12.5,0.,-17.,12.5,0.,-3.,         55P     33
0.6,2.,0.,0.,0.;                                                      55P     34
126,1,1,0,0,1,0,0.,0.,1.25,1.25,1.,1.,0.,0.,-3.,12.5,0.,-3.,0.,       57P     35
1.25,0.,0.,0.;                                                        57P     36
126,1,1,0,0,1,0,0.6,0.6,2.,2.,1.,1.,0.,0.,-17.,0.,0.,-3.,0.6,2.,      59P     37
0.,0.,0.;                                                             59P     38
126,1,1,0,0,1,0,0.290236551261177,0.290236551261177,                  61P     39
1.33630462863384,1.33630462863384,1.,1.,12.5,-21.4311119595473,       61P     40
-23.,12.5,-30.,-17.,0.290236551261177,1.33630462863384,0.,0.,0.;      61P     41
126,1,1,0,0,1,0,-0.643111195954731,-0.643111195954731,3.85,3.85,      63P     42
1.,1.,12.5,-21.4311119595473,-23.,12.5,23.5,-23.,                     63P     43
-0.643111195954731,3.85,0.,0.,0.;                                     63P     44
126,1,1,0,0,1,0,0.,0.,2.,2.,1.,1.,12.5,23.5,-23.,12.5,23.5,-3.,       65P     45
0.,2.,0.,0.,0.;                                                       65P     46
126,1,1,0,0,1,0,2.7,2.7,3.,3.,1.,1.,12.5,23.5,-3.,12.5,26.5,-3.,      67P     47
2.7,3.,0.,0.,0.;                                                      67P     48
126,1,1,0,0,1,0,0.,0.,0.8,0.8,1.,1.,12.5,26.5,-3.,12.5,26.5,5.,       69P     49
0.,0.8,0.,0.,0.;                                                      69P     50
126,1,1,0,0,1,0,-0.925,-0.925,2.075,2.075,1.,1.,12.5,-3.5,5.,         71P     51
12.5,26.5,5.,-0.925,2.075,0.,0.,0.;                                   71P     52
126,1,1,0,0,1,0,0.,0.,0.8,0.8,1.,1.,12.5,-3.5,-3.,12.5,-3.5,5.,       73P     53
0.,0.8,0.,0.,0.;                                                      73P     54
126,1,1,0,0,1,0,0.,0.,0.35,0.35,1.,1.,12.5,-3.5,-3.,12.5,0.,-3.,      75P     55
0.,0.35,0.,0.,0.;                                                     75P     56
126,1,1,0,0,1,0,-1.5,-1.5,1.5,1.5,1.,1.,12.5,-30.,-17.,12.5,0.,       77P     57
-17.,-1.5,1.5,0.,0.,0.;                                               77P     58
126,1,1,0,0,1,0,0.,0.,1.25,1.25,1.,1.,12.5,23.5,-23.,0.,23.5,         79P     59
-23.,0.,1.25,0.,0.,0.;                                                79P     60
126,1,1,0,0,1,0,0.,0.,2.,2.,1.,1.,0.,23.5,-23.,0.,23.5,-3.,0.,        81P     61
2.,0.,0.,0.;                                                          81P     62
126,1,1,0,0,1,0,0.,0.,1.25,1.25,1.,1.,12.5,23.5,-3.,0.,23.5,-3.,      83P     63
0.,1.25,0.,0.,0.;                                                     83P     64
126,1,1,0,0,1,0,-0.9,-0.9,2.1,2.1,1.,1.,0.,26.5,5.,0.,-3.5,5.,        85P     65
-0.9,2.1,0.,0.,0.;                                                    85P     66
126,1,1,0,0,1,0,-0.3125,-0.3125,0.9375,0.9375,1.,1.,0.,-3.5,5.,       87P     67
12.5,-3.5,5.,-0.3125,0.9375,0.,0.,0.;                                 87P     68
126,1,1,0,0,1,0,-0.3125,-0.3125,0.9375,0.9375,1.,1.,12.5,26.5,        89P     69
5.,0.,26.5,5.,-0.3125,0.9375,0.,0.,0.;                                89P     70
126,1,1,0,0,1,0,0.,0.,1.25,1.25,1.,1.,0.,-3.5,-3.,12.5,-3.5,-3.,      91P     71
0.,1.25,0.,0.,0.;                                                     91P     72
126,1,1,0,0,1,0,0.,0.,0.8,0.8,1.,1.,0.,-3.5,-3.,0.,-3.5,5.,0.,        93P     73
0.8,0.,0.,0.;                                                         93P     74
126,1,1,0,0,1,0,0.,0.,1.25,1.25,1.,1.,12.5,26.5,-3.,0.,26.5,-3.,      95P     75
0.,1.25,0.,0.,0.;                                                     95P     76
126,1,1,0,0,1,0,0.,0.,0.8,0.8,1.,1.,0.,26.5,-3.,0.,26.5,5.,0.,        97P     77
0.8,0.,0.,0.;                                                         97P     78
126,1,1,0,0,1,0,0.,0.,0.299999999999999,0.299999999999999,1.,1.,      99P     79
0.,26.5,-3.,0.,23.5,-3.,0.,0.299999999999999,0.,0.,0.;                99P     80
126,1,1,0,0,1,0,2.65,2.65,3.,3.,1.,1.,0.,0.,-3.,0.,-3.5,-3.,         101P     81
2.65,3.,0.,0.,0.;                                                    101P     82
126,1,1,0,0,1,0,-1.5,-1.5,1.5,1.5,1.,1.,0.,-30.,-17.,0.,0.,-17.,     103P     83
-1.5,1.5,0.,0.,0.;                                                   103P     84
126,1,1,0,0,1,0,-0.625,-0.625,0.625,0.625,1.,1.,12.5,-30.,-17.,      105P     85
0.,-30.,-17.,-0.625,0.625,0.,0.,0.;                                  105P     86
126,1,1,0,0,1,0,-2.2988082806734,-2.2988082806734,                   107P     87
-1.25274020330074,-1.25274020330074,1.,1.,-5.55111512312578D-16,     107P     88
-30.,-17.,-5.55111512312578D-16,-21.4311119595473,-23.,              107P     89
-2.2988082806734,-1.25274020330074,0.,0.,0.;                         107P     90
126,1,1,0,0,1,0,0.,0.,4.49311119595473,4.49311119595473,1.,1.,       109P     91
0.,23.5,-23.,0.,-21.4311119595473,-23.,0.,4.49311119595473,0.,       109P     92
0.,0.;                                                               109P     93
126,1,1,0,0,1,0,-0.625,-0.625,0.625,0.625,1.,1.,0.,                  111P     94
-21.4311119595473,-23.,12.5,-21.4311119595473,-23.,-0.625,0.625,     111P     95
0.,0.,0.;                                                            111P     96
128,1,1,1,1,0,0,1,0,0,-0.001,-0.001,1.251,1.251,0.599,0.599,         113P     97
2.001,2.001,1.,1.,1.,1.,-0.01,0.,-17.01,12.51,0.,-17.01,-0.01,       113P     98
0.,-2.99,12.51,0.,-2.99,-0.001,1.251,0.599,2.001;                    113P     99
128,1,1,1,1,0,0,1,0,0,-3.001,-3.001,2.651,2.651,-0.001,-0.001,       115P    100
2.801,2.801,1.,1.,1.,1.,12.5,-30.01,-23.01,12.5,26.51,-23.01,        115P    101
12.5,-30.01,5.00999999999999,12.5,26.51,5.00999999999999,-3.001,     115P    102
2.651,-0.001,2.801;                                                  115P    103
128,1,1,1,1,0,0,1,0,0,-0.001,-0.001,1.251,1.251,-0.001,-0.001,       117P    104
2.001,2.001,1.,1.,1.,1.,12.51,23.5,-23.01,-0.0099999999999989,       117P    105
23.5,-23.01,12.51,23.5,-2.99,-0.0099999999999989,23.5,-2.99,         117P    106
-0.001,1.251,-0.001,2.001;                                           117P    107
128,1,1,1,1,0,0,1,0,0,-0.626,-0.626,0.626,0.626,-1.501,-1.501,       119P    108
1.501,1.501,1.,1.,1.,1.,-0.01,-3.51,5.,12.51,-3.51,5.,-0.01,         119P    109
26.51,5.,12.51,26.51,5.,-0.626,0.626,-1.501,1.501;                   119P    110
128,1,1,1,1,0,0,1,0,0,-0.001,-0.001,1.251,1.251,-0.001,-0.001,       121P    111
0.801,0.801,1.,1.,1.,1.,-0.01,-3.5,-3.01,12.51,-3.5,-3.01,-0.01,     121P    112
-3.5,5.01,12.51,-3.5,5.01,-0.001,1.251,-0.001,0.801;                 121P    113
128,1,1,1,1,0,0,1,0,0,-0.001,-0.001,1.251,1.251,-0.001,-0.001,       123P    114
0.801,0.801,1.,1.,1.,1.,12.51,26.5,-3.01,-0.0099999999999989,        123P    115
26.5,-3.01,12.51,26.5,5.01,-0.0099999999999989,26.5,5.01,-0.001,     123P    116
1.251,-0.001,0.801;                                                  123P    117
128,1,1,1,1,0,0,1,0,0,-0.626,-0.626,0.626,0.626,-1.501,-1.501,       125P    118
-1.199,-1.199,1.,1.,1.,1.,-0.01,26.51,-3.,12.51,26.51,-3.,           125P    119
-0.0099999999999989,23.49,-3.,12.51,23.49,-3.,-0.626,0.626,          125P    120
-1.501,-1.199;                                                       125P    121
128,1,1,1,1,0,0,1,0,0,-0.626,-0.626,0.626,0.626,1.149,1.149,         127P    122
1.501,1.501,1.,1.,1.,1.,-0.01,0.0099999999999989,-3.,12.51,          127P    123
0.0099999999999989,-3.,-0.0099999999999989,-3.51,-3.,12.51,          127P    124
-3.51,-3.,-0.626,0.626,1.149,1.501;                                  127P    125
128,1,1,1,1,0,0,1,0,0,-1.501,-1.501,1.501,1.501,-0.626,-0.626,       129P    126
0.626,0.626,1.,1.,1.,1.,12.51,-30.01,-17.,12.51,                     129P    127
0.0099999999999989,-17.,-0.0099999999999989,-30.01,-17.,-0.01,       129P    128
0.0099999999999989,-17.,-1.501,1.501,-0.626,0.626;                   129P    129
128,1,1,1,1,0,0,1,0,0,-0.300999999999999,-0.300999999999999,         131P    130
5.351,5.351,-0.00100000000000044,-0.00100000000000044,2.801,         131P    131
2.801,1.,1.,1.,1.,0.,26.51,-23.01,0.,-30.01,-23.01,0.,26.51,         131P    132
5.00999999999999,0.,-30.01,5.00999999999999,-0.300999999999999,      131P    133
5.351,-0.00100000000000044,2.801;                                    131P    134
128,1,1,1,1,0,0,1,0,0,-0.626,-0.626,0.626,0.626,                     133P    135
-3.31911119595473,-3.31911119595473,1.176,1.176,1.,1.,1.,1.,         133P    136
12.51,-21.4411119595473,-23.,-0.01,-21.4411119595473,-23.,12.51,     133P    137
23.51,-23.,-0.01,23.51,-23.,-0.626,0.626,-3.31911119595473,          133P    138
1.176;                                                               133P    139
128,1,1,1,1,0,0,1,0,0,-0.626,-0.626,0.626,0.626,                     135P    140
0.127992737409931,0.127992737409931,1.17606081478259,                135P    141
1.17606081478259,1.,1.,1.,1.,12.51,-30.0081915204429,                135P    142
-16.9942642356365,-0.01,-30.0081915204429,-16.9942642356365,         135P    143
12.51,-21.4229204391044,-23.0057357643635,-0.0099999999999989,       135P    144
-21.4229204391044,-23.0057357643635,-0.626,0.626,                    135P    145
0.127992737409931,1.17606081478259;                                  135P    146
502,20,0.,0.,-17.,12.5,0.,-17.,12.5,0.,-3.,0.,0.,-3.,12.5,           137P    147
-21.4311119595473,-23.,12.5,-30.,-17.,12.5,23.5,-23.,12.5,23.5,      137P    148
-3.,12.5,26.5,-3.,12.5,26.5,5.,12.5,-3.5,5.,12.5,-3.5,-3.,0.,        137P    149
23.5,-23.,0.,23.5,-3.,0.,26.5,5.,0.,-3.5,5.,0.,-3.5,-3.,0.,26.5,     137P    150
-3.,0.,-30.,-17.,0.,-21.4311119595473,-23.;                          137P    151
504,30,53,137,1,137,2,55,137,2,137,3,57,137,4,137,3,59,137,1,        139P    152
137,4,61,137,5,137,6,63,137,5,137,7,65,137,7,137,8,67,137,8,137,     139P    153
9,69,137,9,137,10,71,137,11,137,10,73,137,12,137,11,75,137,12,       139P    154
137,3,77,137,6,137,2,79,137,7,137,13,81,137,13,137,14,83,137,8,      139P    155
137,14,85,137,15,137,16,87,137,16,137,11,89,137,10,137,15,91,        139P    156
137,17,137,12,93,137,17,137,16,95,137,9,137,18,97,137,18,137,15,     139P    157
99,137,18,137,14,101,137,4,137,17,103,137,19,137,1,105,137,6,        139P    158
137,19,107,137,19,137,20,109,137,13,137,20,111,137,20,137,5;         139P    159
406,1,13HKomponente5:1;                                              141P    160
406,1,16Hservo_stamp_fill;                                           143P    161
408,147,0.,0.,0.,1.,0,1,141;                                         145P    162
308,0,11HKomponente5,0;                                              147P    163
314,62.7450980392157,62.7450980392157,62.7450980392157,17HStahl      149P    164
- satiniert;                                                         149P    165
S      1G      3D    150P    165                                        T      1
