                                                                        S      1
,,8Hservo v2,11Hservo_stamp,7Hunknown,7Hunknown,32,38,7,99,15,,1.,2,2HMMG      1
,1,0.08,15H20221223.093339,0.01,10000.,7Hunknown,7Hunknown,11,0,15H20221G      2
222.201708;                                                             G      3
     186       1                                                00000000D      1
     186            -125       1       0                               0D      2
     514       2                                                00010000D      3
     514                       1       1                               0D      4
     510       3                                                00010000D      5
     510            -125       1       1                               0D      6
     510       4                                                00010000D      7
     510            -125       1       1                               0D      8
     510       5                                                00010000D      9
     510            -125       1       1                               0D     10
     510       6                                                00010000D     11
     510            -125       1       1                               0D     12
     510       7                                                00010000D     13
     510            -125       1       1                               0D     14
     510       8                                                00010000D     15
     510            -125       1       1                               0D     16
     510       9                                                00010000D     17
     510            -125       1       1                               0D     18
     510      10                                                00010000D     19
     510            -125       1       1                               0D     20
     510      11                                                00010000D     21
     510            -125       1       1                               0D     22
     510      12                                                00010000D     23
     510            -125       1       1                               0D     24
     508      13                                                00010000D     25
     508                       1       1                               0D     26
     508      14                                                00010000D     27
     508                       1       1                               0D     28
     508      15                                                00010000D     29
     508                       1       1                               0D     30
     508      16                                                00010000D     31
     508                       1       1                               0D     32
     508      17                                                00010000D     33
     508                       1       1                               0D     34
     508      18                                                00010000D     35
     508                       1       1                               0D     36
     508      19                                                00010000D     37
     508                       2       1                               0D     38
     508      21                                                00010000D     39
     508                       1       1                               0D     40
     508      22                                                00010000D     41
     508                       2       1                               0D     42
     508      24                                                00010000D     43
     508                       1       1                               0D     44
     126      25                                                00010000D     45
     126       0               3       0                               0D     46
     126      28                                                00010000D     47
     126       0               2       0                               0D     48
     126      30                                                00010000D     49
     126       0               2       0                               0D     50
     126      32                                                00010000D     51
     126       0               3       0                               0D     52
     126      35                                                00010000D     53
     126       0               2       0                               0D     54
     126      37                                                00010000D     55
     126       0               3       0                               0D     56
     126      40                                                00010000D     57
     126       0               2       0                               0D     58
     126      42                                                00010000D     59
     126       0               2       0                               0D     60
     126      44                                                00010000D     61
     126       0               3       0                               0D     62
     126      47                                                00010000D     63
     126       0               3       0                               0D     64
     126      50                                                00010000D     65
     126       0               2       0                               0D     66
     126      52                                                00010000D     67
     126       0               2       0                               0D     68
     126      54                                                00010000D     69
     126       0               3       0                               0D     70
     126      57                                                00010000D     71
     126       0               2       0                               0D     72
     126      59                                                00010000D     73
     126       0               4       0                               0D     74
     126      63                                                00010000D     75
     126       0               3       0                               0D     76
     126      66                                                00010000D     77
     126       0               2       0                               0D     78
     126      68                                                00010000D     79
     126       0               3       0                               0D     80
     126      71                                                00010000D     81
     126       0               3       0                               0D     82
     126      74                                                00010000D     83
     126       0               3       0                               0D     84
     126      77                                                00010000D     85
     126       0               3       0                               0D     86
     126      80                                                00010000D     87
     126       0               3       0                               0D     88
     126      83                                                00010000D     89
     126       0               3       0                               0D     90
     126      86                                                00010000D     91
     126       0               3       0                               0D     92
     128      89                                                00010000D     93
     128       0    -125       4       0                               0D     94
     128      93                                                00010000D     95
     128       0    -125       4       0                               0D     96
     128      97                                                00010000D     97
     128       0    -125       5       0                               0D     98
     128     102                                                00010000D     99
     128       0    -125       5       0                               0D    100
     128     107                                                00010000D    101
     128       0    -125       5       0                               0D    102
     128     112                                                00010000D    103
     128       0    -125       5       0                               0D    104
     128     117                                                00010000D    105
     128       0    -125       5       0                               0D    106
     128     122                                                00010000D    107
     128       0    -125       5       0                               0D    108
     128     127                                                00010000D    109
     128       0    -125       5       0                               0D    110
     128     132                                                00010000D    111
     128       0    -125       4       0                               0D    112
     502     136                                                00010000D    113
     502                       6       1                               0D    114
     504     142                                                00010001D    115
     504                       7       1                               0D    116
     406     149                                                00000000D    117
     406                       1      15                               0D    118
     406     150                                                00000000D    119
     406                       1      15                               0D    120
     408     151                                                00000001D    121
     408       0               1       0                               0D    122
     308     152                                                00010200D    123
     308       0               1       0                               0D    124
     314     153                                                00000200D    125
     314                       2       0                               0D    126
186,3,1,0,0,1,119;                                                     1P      1
514,10,5,1,7,1,9,1,11,1,13,1,15,1,17,1,19,1,21,1,23,1;                 3P      2
510,93,1,1,25;                                                         5P      3
510,95,1,1,27;                                                         7P      4
510,97,1,1,29;                                                         9P      5
510,99,1,1,31;                                                        11P      6
510,101,1,1,33;                                                       13P      7
510,103,1,1,35;                                                       15P      8
510,105,1,1,37;                                                       17P      9
510,107,1,1,39;                                                       19P     10
510,109,1,1,41;                                                       21P     11
510,111,1,1,43;                                                       23P     12
508,4,0,115,1,1,0,0,115,2,0,0,0,115,3,0,0,0,115,4,0,0;                25P     13
508,4,0,115,5,1,0,0,115,6,0,0,0,115,7,0,0,0,115,8,0,0;                27P     14
508,4,0,115,7,1,0,0,115,9,1,0,0,115,10,0,0,0,115,11,0,0;              29P     15
508,4,0,115,3,1,0,0,115,12,1,0,0,115,13,0,0,0,115,14,0,0;             31P     16
508,4,0,115,15,1,0,0,115,13,1,0,0,115,16,1,0,0,115,10,1,0;            33P     17
508,4,0,115,17,1,0,0,115,18,1,0,0,115,5,0,0,0,115,19,0,0;             35P     18
508,8,0,115,20,1,0,0,115,19,1,0,0,115,8,1,0,0,115,11,1,0,0,115,       37P     19
16,0,0,0,115,12,0,0,0,115,2,1,0,0,115,21,0,0;                         37P     20
508,4,0,115,22,1,0,0,115,21,1,0,0,115,1,0,0,0,115,23,0,0;             39P     21
508,8,0,115,24,1,0,0,115,23,1,0,0,115,4,1,0,0,115,14,1,0,0,115,       41P     22
15,0,0,0,115,9,0,0,0,115,6,1,0,0,115,18,0,0;                          41P     23
508,4,0,115,24,0,0,0,115,17,0,0,0,115,20,0,0,0,115,22,0,0;            43P     24
126,1,1,0,0,1,0,-0.3725,-0.3725,0.9975,0.9975,1.,1.,-0.6,             45P     25
-0.600000000000001,-3.6,13.1,-0.600000000000001,-3.6,-0.3725,         45P     26
0.9975,0.,0.,0.;                                                      45P     27
126,1,1,0,0,1,0,-0.985,-0.985,-0.635,-0.635,1.,1.,13.1,-4.1,          47P     28
-3.6,13.1,-0.600000000000001,-3.6,-0.985,-0.635,0.,0.,0.;             47P     29
126,1,1,0,0,1,0,-0.3725,-0.3725,0.9975,0.9975,1.,1.,-0.6,-4.1,        49P     30
-3.6,13.1,-4.1,-3.6,-0.3725,0.9975,0.,0.,0.;                          49P     31
126,1,1,0,0,1,0,1.81,1.81,2.16,2.16,1.,1.,-0.600000000000001,         51P     32
-0.600000000000001,-3.6,-0.600000000000001,-4.1,-3.6,1.81,2.16,       51P     33
0.,0.,0.;                                                             51P     34
126,1,1,0,0,1,0,-0.3725,-0.3725,0.9975,0.9975,1.,1.,13.1,24.1,        53P     35
-3.6,-0.600000000000001,24.1,-3.6,-0.3725,0.9975,0.,0.,0.;            53P     36
126,1,1,0,0,1,0,-0.959999999999999,-0.959999999999999,-0.66,          55P     37
-0.66,1.,1.,-0.600000000000001,27.1,-3.6,-0.600000000000001,          55P     38
24.1,-3.6,-0.959999999999999,-0.66,0.,0.,0.;                          55P     39
126,1,1,0,0,1,0,-0.3725,-0.3725,0.9975,0.9975,1.,1.,13.1,27.1,        57P     40
-3.6,-0.600000000000001,27.1,-3.6,-0.3725,0.9975,0.,0.,0.;            57P     41
126,1,1,0,0,1,0,1.835,1.835,2.135,2.135,1.,1.,13.1,24.1,-3.6,         59P     42
13.1,27.1,-3.6,1.835,2.135,0.,0.,0.;                                  59P     43
126,1,1,0,0,1,0,0.94,0.94,1.3,1.3,1.,1.,-0.600000000000001,27.1,      61P     44
-3.6,-0.600000000000001,27.1,-4.44089209850063D-15,0.94,1.3,0.,       61P     45
0.,0.;                                                                61P     46
126,1,1,0,0,1,0,-0.3725,-0.3725,0.9975,0.9975,1.,1.,13.1,27.1,        63P     47
-2.77555756156289D-15,-0.600000000000001,27.1,                        63P     48
-2.77555756156289D-15,-0.3725,0.9975,0.,0.,0.;                        63P     49
126,1,1,0,0,1,0,0.94,0.94,1.3,1.3,1.,1.,13.1,27.1,-3.6,13.1,          65P     50
27.1,-4.44089209850063D-15,0.94,1.3,0.,0.,0.;                         65P     51
126,1,1,0,0,1,0,0.94,0.94,1.3,1.3,1.,1.,13.1,-4.1,-3.6,13.1,          67P     52
-4.1,-4.44089209850063D-15,0.94,1.3,0.,0.,0.;                         67P     53
126,1,1,0,0,1,0,-0.3725,-0.3725,0.9975,0.9975,1.,1.,-0.6,-4.1,        69P     54
-2.77555756156289D-15,13.1,-4.1,-2.77555756156289D-15,-0.3725,        69P     55
0.9975,0.,0.,0.;                                                      69P     56
126,1,1,0,0,1,0,0.94,0.94,1.3,1.3,1.,1.,-0.6,-4.1,-3.6,-0.6,          71P     57
-4.1,-4.44089209850063D-15,0.94,1.3,0.,0.,0.;                         71P     58
126,1,1,0,0,1,0,-0.959999999999999,-0.959999999999999,2.16,2.16,      73P     59
1.,1.,-0.600000000000001,27.1,-2.22044604925031D-15,                  73P     60
-0.600000000000001,-4.1,-2.22044604925031D-15,                        73P     61
-0.959999999999999,2.16,0.,0.,0.;                                     73P     62
126,1,1,0,0,1,0,-0.985,-0.985,2.135,2.135,1.,1.,13.1,-4.1,            75P     63
-2.22044604925031D-15,13.1,27.1,-2.22044604925031D-15,-0.985,         75P     64
2.135,0.,0.,0.;                                                       75P     65
126,1,1,0,0,1,0,-0.3725,-0.3725,0.9975,0.9975,1.,1.,13.1,24.1,        77P     66
-23.6,-0.600000000000001,24.1,-23.6,-0.3725,0.9975,0.,0.,0.;          77P     67
126,1,1,0,0,1,0,-0.0600000000000001,-0.0600000000000001,1.94,         79P     68
1.94,1.,1.,-0.600000000000001,24.1,-23.6,-0.600000000000001,          79P     69
24.1,-3.6,-0.0600000000000001,1.94,0.,0.,0.;                          79P     70
126,1,1,0,0,1,0,-0.0599999999999998,-0.0599999999999998,1.94,         81P     71
1.94,1.,1.,13.1,24.1,-23.6,13.1,24.1,-3.6,-0.0599999999999998,        81P     72
1.94,0.,0.,0.;                                                        81P     73
126,1,1,0,0,1,0,-0.6475,-0.6475,1.8225,1.8225,1.,1.,13.1,             83P     74
-0.600000000000001,-23.6,13.1,24.1,-23.6,-0.6475,1.8225,0.,0.,        83P     75
0.;                                                                   83P     76
126,1,1,0,0,1,0,-0.0599999999999998,-0.0599999999999998,1.94,         85P     77
1.94,1.,1.,13.1,-0.6,-23.6,13.1,-0.6,-3.6,-0.0599999999999998,        85P     78
1.94,0.,0.,0.;                                                        85P     79
126,1,1,0,0,1,0,-0.3725,-0.3725,0.9975,0.9975,1.,1.,-0.6,             87P     80
-0.600000000000001,-23.6,13.1,-0.600000000000001,-23.6,-0.3725,       87P     81
0.9975,0.,0.,0.;                                                      87P     82
126,1,1,0,0,1,0,-0.0600000000000001,-0.0600000000000001,1.94,         89P     83
1.94,1.,1.,-0.6,-0.600000000000001,-23.6,-0.6,                        89P     84
-0.600000000000001,-3.6,-0.0600000000000001,1.94,0.,0.,0.;            89P     85
126,1,1,0,0,1,0,-0.6475,-0.6475,1.8225,1.8225,1.,1.,                  91P     86
-0.600000000000001,24.1,-23.6,-0.600000000000001,                     91P     87
-0.600000000000001,-23.6,-0.6475,1.8225,0.,0.,0.;                     91P     88
128,1,1,1,1,0,0,1,0,0,-0.686,-0.686,0.686,0.686,1.209,1.209,          93P     89
1.561,1.561,1.,1.,1.,1.,-0.610000000000001,-0.590000000000002,        93P     90
-3.6,13.11,-0.590000000000002,-3.6,-0.609999999999999,-4.11,          93P     91
-3.6,13.11,-4.11,-3.6,-0.686,0.686,1.209,1.561;                       93P     92
128,1,1,1,1,0,0,1,0,0,-0.686,-0.686,0.686,0.686,-1.561,-1.561,        95P     93
-1.259,-1.259,1.,1.,1.,1.,-0.610000000000001,27.11,-3.6,13.11,        95P     94
27.11,-3.6,-0.609999999999999,24.09,-3.6,13.11,24.09,-3.6,            95P     95
-0.686,0.686,-1.561,-1.259;                                           95P     96
128,1,1,1,1,0,0,1,0,0,-0.0610000000000001,-0.0610000000000001,        97P     97
1.311,1.311,-0.061,-0.061,0.301,0.301,1.,1.,1.,1.,13.11,27.1,         97P     98
-3.61,-0.609999999999999,27.1,-3.61,13.11,27.1,                       97P     99
0.00999999999999723,-0.609999999999999,27.1,0.00999999999999723,      97P    100
-0.0610000000000001,1.311,-0.061,0.301;                               97P    101
128,1,1,1,1,0,0,1,0,0,-0.0610000000000001,-0.0610000000000001,        99P    102
1.311,1.311,-0.061,-0.061,0.301,0.301,1.,1.,1.,1.,                    99P    103
-0.610000000000001,-4.1,-3.61,13.11,-4.1,-3.61,                       99P    104
-0.610000000000001,-4.1,0.00999999999999723,13.11,-4.1,               99P    105
0.00999999999999723,-0.0610000000000001,1.311,-0.061,0.301;           99P    106
128,1,1,1,1,0,0,1,0,0,-0.686,-0.686,0.686,0.686,-1.561,-1.561,       101P    107
1.561,1.561,1.,1.,1.,1.,-0.610000000000001,-4.11,                    101P    108
-2.77555756156289D-15,13.11,-4.11,-2.77555756156289D-15,             101P    109
-0.610000000000001,27.11,-2.77555756156289D-15,13.11,27.11,          101P    110
-2.77555756156289D-15,-0.686,0.686,-1.561,1.561;                     101P    111
128,1,1,1,1,0,0,1,0,0,-0.0610000000000001,-0.0610000000000001,       103P    112
1.311,1.311,-0.0610000000000001,-0.0610000000000001,1.941,1.941,     103P    113
1.,1.,1.,1.,13.11,24.1,-23.61,-0.609999999999999,24.1,-23.61,        103P    114
13.11,24.1,-3.59,-0.609999999999999,24.1,-3.59,                      103P    115
-0.0610000000000001,1.311,-0.0610000000000001,1.941;                 103P    116
128,1,1,1,1,0,0,1,0,0,-0.411,-0.411,2.711,2.711,                     105P    117
-0.0610000000000001,-0.0610000000000001,2.301,2.301,1.,1.,1.,1.,     105P    118
13.1,-4.11,-23.61,13.1,27.11,-23.61,13.1,-4.11,                      105P    119
0.00999999999999446,13.1,27.11,0.00999999999999446,-0.411,2.711,     105P    120
-0.0610000000000001,2.301;                                           105P    121
128,1,1,1,1,0,0,1,0,0,-0.0610000000000001,-0.0610000000000001,       107P    122
1.311,1.311,-0.0610000000000001,-0.0610000000000001,1.941,1.941,     107P    123
1.,1.,1.,1.,-0.610000000000001,-0.6,-23.61,13.11,-0.6,-23.61,        107P    124
-0.610000000000001,-0.6,-3.59,13.11,-0.6,-3.59,                      107P    125
-0.0610000000000001,1.311,-0.0610000000000001,1.941;                 107P    126
128,1,1,1,1,0,0,1,0,0,-0.360999999999999,-0.360999999999999,         109P    127
2.761,2.761,-0.0610000000000001,-0.0610000000000001,2.301,2.301,     109P    128
1.,1.,1.,1.,-0.6,27.11,-23.61,-0.6,-4.11,-23.61,-0.6,27.11,          109P    129
0.00999999999999446,-0.6,-4.11,0.00999999999999446,                  109P    130
-0.360999999999999,2.761,-0.0610000000000001,2.301;                  109P    131
128,1,1,1,1,0,0,1,0,0,-0.686,-0.686,0.686,0.686,-1.236,-1.236,       111P    132
1.236,1.236,1.,1.,1.,1.,13.11,-0.609999999999999,-23.6,              111P    133
-0.610000000000001,-0.609999999999999,-23.6,13.11,24.11,-23.6,       111P    134
-0.610000000000001,24.11,-23.6,-0.686,0.686,-1.236,1.236;            111P    135
502,16,-0.6,-0.6,-3.6,13.1,-0.6,-3.6,13.1,-4.1,-3.6,-0.6,-4.1,       113P    136
-3.6,13.1,24.1,-3.6,-0.6,24.1,-3.6,-0.6,27.1,-3.6,13.1,27.1,         113P    137
-3.6,-0.6,27.1,-3.33066907387547D-15,13.1,27.1,                      113P    138
-3.33066907387547D-15,13.1,-4.1,-3.33066907387547D-15,-0.6,-4.1,     113P    139
-3.33066907387547D-15,13.1,24.1,-23.6,-0.6,24.1,-23.6,13.1,-0.6,     113P    140
-23.6,-0.6,-0.6,-23.6;                                               113P    141
504,24,45,113,1,113,2,47,113,3,113,2,49,113,4,113,3,51,113,1,        115P    142
113,4,53,113,5,113,6,55,113,7,113,6,57,113,8,113,7,59,113,5,113,     115P    143
8,61,113,7,113,9,63,113,10,113,9,65,113,8,113,10,67,113,3,113,       115P    144
11,69,113,12,113,11,71,113,4,113,12,73,113,9,113,12,75,113,11,       115P    145
113,10,77,113,13,113,14,79,113,14,113,6,81,113,13,113,5,83,113,      115P    146
15,113,13,85,113,15,113,2,87,113,16,113,15,89,113,16,113,1,91,       115P    147
113,14,113,16;                                                       115P    148
406,1,13HKomponente2:1;                                              117P    149
406,1,8HKörper1;                                                    119P    150
408,123,0.,0.,0.,1.,0,1,117;                                         121P    151
308,0,11HKomponente2,0;                                              123P    152
314,62.7450980392157,62.7450980392157,62.7450980392157,17HStahl      125P    153
- satiniert;                                                         125P    154
S      1G      3D    126P    154                                        T      1
